<svg
  width="18"
  height="18"
  viewBox="0 0 18 18"
  fill="none"
  xmlns="http://www.w3.org/2000/svg"
>
  <path
    d="M11.7779 9.52808C11.8563 9.44942 11.9495 9.387 12.052 9.34442C12.1546 9.30183 12.2646 9.27991 12.3756 9.27991C12.4867 9.27991 12.5966 9.30183 12.6992 9.34442C12.8017 9.387 12.8949 9.44942 12.9733 9.52808L15.2233 11.7781C15.3019 11.8565 15.3643 11.9496 15.4069 12.0522C15.4495 12.1547 15.4714 12.2647 15.4714 12.3757C15.4714 12.4868 15.4495 12.5967 15.4069 12.6993C15.3643 12.8019 15.3019 12.895 15.2233 12.9734L12.9733 15.2234C12.8948 15.3019 12.8016 15.3641 12.6991 15.4066C12.5965 15.4491 12.4866 15.4709 12.3756 15.4709C12.2646 15.4709 12.1547 15.4491 12.0522 15.4066C11.9496 15.3641 11.8564 15.3019 11.7779 15.2234C11.6995 15.1449 11.6372 15.0517 11.5947 14.9492C11.5523 14.8466 11.5304 14.7367 11.5304 14.6257C11.5304 14.5147 11.5523 14.4048 11.5947 14.3023C11.6372 14.1997 11.6995 14.1066 11.7779 14.0281L12.5858 13.2188L3.3749 13.2188C3.15113 13.2188 2.93652 13.1299 2.77828 12.9717C2.62005 12.8134 2.53115 12.5988 2.53115 12.375C2.53115 12.1513 2.62005 11.9366 2.77828 11.7784C2.93652 11.6202 3.15113 11.5313 3.3749 11.5313L12.5858 11.5313L11.7758 10.722C11.6975 10.6435 11.6355 10.5503 11.5932 10.4478C11.5509 10.3453 11.5292 10.2355 11.5294 10.1246C11.5296 10.0137 11.5517 9.90396 11.5943 9.8016C11.637 9.69925 11.6994 9.6063 11.7779 9.52808ZM5.02795 2.77808L2.77795 5.02808C2.69929 5.10647 2.63688 5.19961 2.59429 5.30217C2.55171 5.40473 2.52978 5.51468 2.52978 5.62573C2.52978 5.73678 2.55171 5.84674 2.59429 5.9493C2.63688 6.05186 2.69929 6.145 2.77795 6.22339L5.02795 8.47339C5.18646 8.6319 5.40144 8.72095 5.62561 8.72095C5.84977 8.72095 6.06475 8.6319 6.22326 8.47339C6.38177 8.31488 6.47082 8.0999 6.47082 7.87573C6.47082 7.65157 6.38177 7.43659 6.22326 7.27808L5.41397 6.46878L14.6249 6.46878C14.8487 6.46878 15.0633 6.37989 15.2215 6.22165C15.3798 6.06342 15.4687 5.84881 15.4687 5.62503C15.4687 5.40125 15.3798 5.18664 15.2215 5.02841C15.0633 4.87018 14.8487 4.78128 14.6249 4.78128L5.41397 4.78128L6.22397 3.97198C6.38247 3.81348 6.47152 3.59849 6.47152 3.37433C6.47152 3.15016 6.38247 2.93518 6.22397 2.77667C6.06546 2.61816 5.85047 2.52911 5.62631 2.52911C5.40214 2.52911 5.18716 2.61816 5.02865 2.77667L5.02795 2.77808Z"
    fill="currentColor"
  />
</svg>
