<svg fill="none" xmlns="http://www.w3.org/2000/svg" viewBox="0 0 32 33"><path d="M28 6.5h-8a5 5 0 0 0-4 2 5 5 0 0 0-4-2H4a2 2 0 0 0-2 2v16a2 2 0 0 0 2 2h8a3 3 0 0 1 3 3 1 1 0 0 0 2 0 3 3 0 0 1 3-3h8a2 2 0 0 0 2-2v-16a2 2 0 0 0-2-2Zm-16 18H4v-16h8a3 3 0 0 1 3 3v14a4.976 4.976 0 0 0-3-1Zm16 0h-8a4.976 4.976 0 0 0-3 1v-14a3 3 0 0 1 3-3h8v16Zm-8-13h5a1 1 0 0 1 0 2h-5a1 1 0 0 1 0-2Zm6 5a1 1 0 0 1-1 1h-5a1 1 0 0 1 0-2h5a1 1 0 0 1 1 1Zm0 4a1 1 0 0 1-1 1h-5a1 1 0 0 1 0-2h5a1 1 0 0 1 1 1Z" fill="currentColor"/></svg>