<svg
  width="18"
  height="18"
  viewBox="0 0 18 18"
  fill="none"
  xmlns="http://www.w3.org/2000/svg"
>
  <path
    d="M16.347 5.65948L7.34695 14.6595C7.26857 14.7381 7.17542 14.8006 7.07286 14.8431C6.9703 14.8857 6.86035 14.9076 6.7493 14.9076C6.63825 14.9076 6.52829 14.8857 6.42573 14.8431C6.32317 14.8006 6.23003 14.7381 6.15164 14.6595L2.21414 10.722C2.13566 10.6435 2.0734 10.5503 2.03092 10.4478C1.98845 10.3452 1.96658 10.2353 1.96658 10.1243C1.96658 10.0133 1.98845 9.90342 2.03092 9.80088C2.0734 9.69833 2.13566 9.60515 2.21414 9.52667C2.29263 9.44818 2.3858 9.38593 2.48835 9.34345C2.59089 9.30097 2.7008 9.27911 2.8118 9.27911C2.92279 9.27911 3.0327 9.30097 3.13525 9.34345C3.23779 9.38593 3.33097 9.44818 3.40945 9.52667L6.75 12.8672L15.153 4.46557C15.3116 4.30707 15.5265 4.21802 15.7507 4.21802C15.9749 4.21802 16.1899 4.30707 16.3484 4.46557C16.5069 4.62408 16.5959 4.83907 16.5959 5.06323C16.5959 5.2874 16.5069 5.50238 16.3484 5.66089L16.347 5.65948Z"
    fill="currentcolor"
  />
</svg>
