<svg
  width="18"
  height="19"
  viewBox="0 0 18 19"
  fill="none"
  xmlns="http://www.w3.org/2000/svg"
>
  <path
    d="M9 1.90625C7.4981 1.90625 6.02993 2.35162 4.78114 3.18603C3.53236 4.02044 2.55905 5.20642 1.98429 6.594C1.40954 7.98157 1.25916 9.50842 1.55217 10.9815C1.84517 12.4545 2.56841 13.8076 3.63041 14.8696C4.69242 15.9316 6.04549 16.6548 7.51854 16.9478C8.99158 17.2408 10.5184 17.0905 11.906 16.5157C13.2936 15.941 14.4796 14.9676 15.314 13.7189C16.1484 12.4701 16.5938 11.0019 16.5938 9.5C16.5915 7.4867 15.7907 5.5565 14.3671 4.13287C12.9435 2.70925 11.0133 1.90848 9 1.90625ZM9 15.4062C7.83186 15.4062 6.68994 15.0599 5.71867 14.4109C4.74739 13.7619 3.99037 12.8394 3.54334 11.7602C3.09631 10.681 2.97935 9.49345 3.20724 8.34775C3.43513 7.20205 3.99765 6.14965 4.82365 5.32365C5.64966 4.49765 6.70205 3.93513 7.84775 3.70724C8.99345 3.47934 10.181 3.59631 11.2602 4.04334C12.3395 4.49037 13.2619 5.24739 13.9109 6.21866C14.5599 7.18994 14.9063 8.33185 14.9063 9.5C14.9046 11.0659 14.2818 12.5672 13.1745 13.6745C12.0672 14.7818 10.5659 15.4046 9 15.4062ZM13.7813 9.5C13.7813 9.72378 13.6924 9.93839 13.5341 10.0966C13.3759 10.2549 13.1613 10.3438 12.9375 10.3438H9C8.77623 10.3438 8.56162 10.2549 8.40338 10.0966C8.24515 9.93839 8.15625 9.72378 8.15625 9.5V5.5625C8.15625 5.33872 8.24515 5.12411 8.40338 4.96588C8.56162 4.80764 8.77623 4.71875 9 4.71875C9.22378 4.71875 9.43839 4.80764 9.59662 4.96588C9.75486 5.12411 9.84375 5.33872 9.84375 5.5625V8.65625H12.9375C13.1613 8.65625 13.3759 8.74514 13.5341 8.90338C13.6924 9.06161 13.7813 9.27622 13.7813 9.5Z"
    fill="#C8C7C1"
  />
</svg>
