<svg xmlns="http://www.w3.org/2000/svg" width="241" height="212" viewBox="0 0 241 212" fill="none">
  <path fill-rule="evenodd" clip-rule="evenodd" d="M218.343 97.5587L180.711 59.9028C178.337 57.6666 175.188 56.444 171.93 56.4941C168.672 56.5442 165.562 57.8631 163.258 60.1712C160.954 62.4794 159.637 65.5955 159.587 68.8593C159.537 72.1232 160.758 75.2783 162.99 77.6562L191.728 106.514L162.99 135.192C160.643 137.546 159.326 140.738 159.328 144.066C159.33 147.393 160.651 150.583 163.001 152.934C165.351 155.286 168.537 156.605 171.858 156.603C175.18 156.601 178.364 155.277 180.711 152.923L218.343 115.29C220.685 112.936 222 109.748 222 106.424C222 103.101 220.685 99.9128 218.343 97.5587ZM81.0212 59.9028C78.6705 57.55 75.4835 56.2284 72.1606 56.2284C68.8377 56.2284 65.6508 57.55 63.3 59.9028L25.6677 97.5587C23.3192 99.9137 22 103.106 22 106.435C22 109.764 23.3192 112.957 25.6677 115.312L63.3 152.923C65.6471 155.277 68.8315 156.601 72.1527 156.603C73.7973 156.604 75.4259 156.281 76.9456 155.651C78.4654 155.022 79.8464 154.099 81.01 152.934C82.1736 151.77 83.0969 150.388 83.7272 148.866C84.3575 147.344 84.6824 145.713 84.6835 144.066C84.6845 142.418 84.3616 140.787 83.7333 139.264C83.1049 137.742 82.1833 136.358 81.0212 135.192L52.283 106.514L81.0212 77.6562C83.3697 75.3012 84.6889 72.1084 84.6889 68.7795C84.6889 65.4506 83.3697 62.2578 81.0212 59.9028ZM144.822 25.7394C141.683 24.6143 138.227 24.7784 135.209 26.196C132.191 27.6136 129.854 30.1696 128.71 33.3064L91.636 171.057C90.8203 174.115 91.1765 177.368 92.6345 180.176C94.0925 182.984 96.5467 185.144 99.5142 186.23C102.482 187.317 105.748 187.251 108.669 186.046C111.591 184.842 113.957 182.585 115.301 179.721L152.375 41.9704C152.945 40.4079 153.201 38.7482 153.13 37.0863C153.059 35.4244 152.661 33.7929 151.959 32.2852C151.258 30.7776 150.266 29.4234 149.041 28.3001C147.817 27.1769 146.383 26.3067 144.822 25.7394Z" fill="#E3E3E0"/>
  <path d="M122 69C101.565 69 85 85.5655 85 106C85 126.435 101.565 143 122 143C142.435 143 159 126.435 159 106C159 85.5655 142.435 69 122 69Z" fill="#1B1B18"/>
  <path d="M122 69C101.565 69 85 85.5655 85 106C85 126.435 101.565 143 122 143C142.435 143 159 126.435 159 106C159 85.5655 142.435 69 122 69Z" stroke="white" stroke-width="10"/>
  <path d="M131.128 93.2564L125.046 102.284C124.981 102.381 124.944 102.494 124.938 102.611C124.932 102.728 124.958 102.844 125.013 102.947C125.068 103.05 125.149 103.136 125.249 103.196C125.349 103.256 125.463 103.288 125.579 103.287C125.735 103.288 125.887 103.233 126.006 103.131L131.994 97.9399C132.029 97.9088 132.072 97.8886 132.118 97.8818C132.165 97.8749 132.212 97.8817 132.255 97.9013C132.297 97.9209 132.333 97.9525 132.358 97.9923C132.383 98.032 132.396 98.0783 132.396 98.1254V114.375C132.397 114.425 132.382 114.474 132.353 114.516C132.324 114.557 132.283 114.588 132.236 114.604C132.189 114.621 132.139 114.623 132.091 114.61C132.044 114.596 132.001 114.569 131.969 114.531L113.872 92.8806C113.581 92.5355 113.218 92.2585 112.81 92.0689C112.401 91.8792 111.956 91.7814 111.506 91.7823H110.876C110.052 91.7823 109.264 92.1093 108.682 92.6902C108.1 93.2711 107.778 94.0569 107.778 94.8794V117.767C107.778 118.59 108.105 119.378 108.684 119.959C109.016 120.291 109.418 120.543 109.86 120.697C110.302 120.851 110.773 120.902 111.238 120.848C111.702 120.793 112.149 120.634 112.543 120.381C112.938 120.129 113.272 119.79 113.518 119.39L119.601 110.362C119.666 110.265 119.704 110.152 119.71 110.035C119.716 109.918 119.69 109.801 119.635 109.698C119.581 109.594 119.499 109.508 119.399 109.448C119.299 109.388 119.184 109.356 119.068 109.357C118.911 109.356 118.76 109.411 118.641 109.513L112.653 114.704C112.627 114.727 112.596 114.745 112.563 114.755C112.53 114.765 112.495 114.768 112.46 114.764C112.426 114.759 112.392 114.747 112.363 114.728C112.334 114.71 112.308 114.685 112.289 114.655C112.264 114.615 112.25 114.569 112.251 114.521V98.2669C112.25 98.2167 112.265 98.1676 112.294 98.1265C112.323 98.0854 112.364 98.0543 112.411 98.0375C112.457 98.0209 112.508 98.019 112.555 98.0321C112.603 98.0452 112.645 98.0726 112.677 98.1107L130.769 119.768C131.061 120.114 131.423 120.391 131.832 120.58C132.241 120.77 132.685 120.868 133.135 120.867H133.766C134.378 120.867 134.976 120.685 135.486 120.345C135.996 120.004 136.395 119.521 136.634 118.953C136.789 118.577 136.868 118.174 136.869 117.767V94.8794C136.869 94.0569 136.541 93.2686 135.962 92.6878C135.63 92.3559 135.228 92.1036 134.786 91.9498C134.344 91.7959 133.874 91.7443 133.409 91.799C132.944 91.8536 132.498 92.0131 132.103 92.2654C131.708 92.5177 131.375 92.8565 131.128 93.2564Z" fill="#FDFDFC"/>
  <path d="M105.178 26.7516C105.143 26.5756 105.071 26.4091 104.966 26.2635C104.861 26.1179 104.726 25.9966 104.57 25.9079L99.9094 23.2516L99.8907 17.9985C99.8901 17.8176 99.8503 17.6389 99.7739 17.4749C99.6976 17.3109 99.5866 17.1654 99.4485 17.0485C97.7578 15.6183 95.8107 14.5223 93.711 13.8188C93.5456 13.7628 93.3704 13.7421 93.1965 13.758C93.0227 13.7739 92.8541 13.826 92.7016 13.911L88.0001 16.5391L83.2938 13.9063C83.1412 13.8208 82.9724 13.7683 82.7983 13.7522C82.6241 13.736 82.4486 13.7566 82.2829 13.8126C80.1844 14.5206 78.2395 15.6208 76.5516 17.0547C76.4138 17.1715 76.3028 17.3167 76.2265 17.4805C76.1502 17.6442 76.1102 17.8225 76.1094 18.0032L76.086 23.261L71.4251 25.9172C71.2691 26.006 71.1341 26.1273 71.0292 26.2729C70.9244 26.4185 70.8521 26.585 70.8172 26.761C70.3907 28.9046 70.3907 31.1112 70.8172 33.2547C70.8521 33.4308 70.9244 33.5972 71.0292 33.7428C71.1341 33.8884 71.2691 34.0097 71.4251 34.0985L76.086 36.7547L76.1047 42.0094C76.1053 42.1903 76.1451 42.369 76.2215 42.533C76.2978 42.697 76.4089 42.8425 76.5469 42.9594C78.2377 44.3896 80.1847 45.4856 82.2844 46.1891C82.4498 46.2451 82.625 46.2658 82.7989 46.2499C82.9727 46.234 83.1413 46.1819 83.2938 46.0969L88.0001 43.461L92.7063 46.0938C92.8926 46.1976 93.1025 46.2514 93.3157 46.25C93.4522 46.25 93.5878 46.2278 93.7172 46.1844C95.8152 45.4767 97.76 44.3776 99.4485 42.9454C99.5864 42.8286 99.6973 42.6834 99.7736 42.5196C99.8499 42.3559 99.8899 42.1776 99.8907 41.9969L99.9141 36.7391L104.575 34.0829C104.731 33.9941 104.866 33.8728 104.971 33.7272C105.076 33.5816 105.148 33.4151 105.183 33.2391C105.607 31.0973 105.605 28.8929 105.178 26.7516ZM88.0001 36.25C86.7639 36.25 85.5555 35.8835 84.5277 35.1967C83.4999 34.51 82.6989 33.5339 82.2258 32.3918C81.7528 31.2498 81.629 29.9931 81.8701 28.7807C82.1113 27.5684 82.7066 26.4547 83.5806 25.5806C84.4547 24.7066 85.5684 24.1113 86.7807 23.8701C87.9931 23.629 89.2498 23.7528 90.3918 24.2258C91.5339 24.6989 92.51 25.4999 93.1967 26.5277C93.8835 27.5555 94.2501 28.7639 94.2501 30.0001C94.2501 31.6577 93.5916 33.2474 92.4195 34.4195C91.2474 35.5916 89.6577 36.25 88.0001 36.25Z" fill="#90908C"/>
  <path d="M165.375 174.125H142.875C142.577 174.125 142.29 174.006 142.08 173.795C141.869 173.585 141.75 173.298 141.75 173C141.75 172.702 141.869 172.415 142.08 172.205C142.29 171.994 142.577 171.875 142.875 171.875H162C162.298 171.875 162.585 171.756 162.795 171.545C163.006 171.335 163.125 171.048 163.125 170.75C163.125 170.452 163.006 170.165 162.795 169.955C162.585 169.744 162.298 169.625 162 169.625H142.875C141.98 169.625 141.121 169.981 140.489 170.614C139.856 171.246 139.5 172.105 139.5 173V191C139.5 191.895 139.856 192.754 140.489 193.386C141.121 194.019 141.98 194.375 142.875 194.375H165.375C165.972 194.375 166.544 194.138 166.966 193.716C167.388 193.294 167.625 192.722 167.625 192.125V176.375C167.625 175.778 167.388 175.206 166.966 174.784C166.544 174.362 165.972 174.125 165.375 174.125ZM160.312 185.375C159.979 185.375 159.652 185.276 159.375 185.091C159.097 184.905 158.881 184.642 158.753 184.333C158.626 184.025 158.592 183.686 158.657 183.358C158.723 183.031 158.883 182.73 159.119 182.494C159.355 182.258 159.656 182.098 159.983 182.032C160.311 181.967 160.65 182.001 160.958 182.128C161.267 182.256 161.53 182.472 161.716 182.75C161.901 183.027 162 183.354 162 183.688C162 184.135 161.822 184.564 161.506 184.881C161.189 185.197 160.76 185.375 160.312 185.375Z" fill="#90908C"/>
  <path d="M27.0875 53.6804C27.1974 54.1065 27.8025 54.1065 27.9124 53.6804L30.0578 45.3639C30.0965 45.2137 30.2136 45.0965 30.3637 45.0578L38.6804 42.9124C39.1065 42.8025 39.1065 42.1974 38.6804 42.0875L30.3637 39.9422C30.2136 39.9035 30.0965 39.7862 30.0578 39.6361L27.9124 31.3196C27.8025 30.8935 27.1974 30.8935 27.0875 31.3196L24.942 39.6361C24.9033 39.7862 24.7863 39.9035 24.6362 39.9422L16.3196 42.0875C15.8935 42.1974 15.8935 42.8025 16.3196 42.9124L24.6362 45.0578C24.7863 45.0965 24.9033 45.2137 24.942 45.3639L27.0875 53.6804Z" fill="#DBDBD7"/>
  <path d="M216.087 174.68C216.197 175.107 216.803 175.107 216.912 174.68L219.058 166.364C219.096 166.214 219.214 166.097 219.364 166.058L227.68 163.912C228.107 163.803 228.107 163.197 227.68 163.088L219.364 160.942C219.214 160.903 219.096 160.786 219.058 160.636L216.912 152.32C216.803 151.893 216.197 151.893 216.087 152.32L213.942 160.636C213.903 160.786 213.786 160.903 213.636 160.942L205.32 163.088C204.893 163.197 204.893 163.803 205.32 163.912L213.636 166.058C213.786 166.097 213.903 166.214 213.942 166.364L216.087 174.68Z" fill="#DBDBD7"/>
  <path d="M7.71304 74.7777C7.7895 75.0741 8.21044 75.0741 8.2869 74.7777L9.77932 68.9923C9.80626 68.8878 9.88774 68.8063 9.99217 68.7793L15.7777 67.2869C16.0741 67.2105 16.0741 66.7895 15.7777 66.7131L9.99217 65.2206C9.88774 65.1937 9.80626 65.1122 9.77932 65.0077L8.2869 59.2223C8.21044 58.9259 7.7895 58.9259 7.71304 59.2223L6.22055 65.0077C6.19361 65.1122 6.1122 65.1937 6.00777 65.2206L0.222316 66.7131C-0.0741055 66.7895 -0.0741055 67.2105 0.222316 67.2869L6.00777 68.7793C6.1122 68.8063 6.19361 68.8878 6.22055 68.9923L7.71304 74.7777Z" fill="#DBDBD7"/>
  <path d="M232.713 145.778C232.789 146.074 233.21 146.074 233.287 145.778L234.779 139.992C234.806 139.888 234.888 139.806 234.992 139.779L240.778 138.287C241.074 138.21 241.074 137.79 240.778 137.713L234.992 136.221C234.888 136.194 234.806 136.112 234.779 136.008L233.287 130.222C233.21 129.926 232.789 129.926 232.713 130.222L231.221 136.008C231.194 136.112 231.112 136.194 231.008 136.221L225.222 137.713C224.926 137.79 224.926 138.21 225.222 138.287L231.008 139.779C231.112 139.806 231.194 139.888 231.221 139.992L232.713 145.778Z" fill="#DBDBD7"/>
  </svg>
