<svg fill="none" xmlns="http://www.w3.org/2000/svg" viewBox="0 0 33 32"><path d="M7 18H5a1 1 0 0 0-1 1v7a1 1 0 0 0 1 1h2a4.5 4.5 0 0 0 0-9Zm0 7H6v-5h1a2.5 2.5 0 0 1 0 5Zm21.191-.614a1 1 0 0 1 .032 1.414A3.757 3.757 0 0 1 25.5 27c-2.206 0-4-2.019-4-4.5s1.794-4.5 4-4.5a3.756 3.756 0 0 1 2.723 1.2 1 1 0 0 1-1.445 1.383A1.78 1.78 0 0 0 25.5 20c-1.102 0-2 1.125-2 2.5s.898 2.5 2 2.5a1.779 1.779 0 0 0 1.277-.582 1 1 0 0 1 1.414-.032ZM16.5 18c-2.206 0-4 2.019-4 4.5s1.794 4.5 4 4.5 4-2.019 4-4.5-1.794-4.5-4-4.5Zm0 7c-1.102 0-2-1.125-2-2.5s.898-2.5 2-2.5c1.102 0 2 1.125 2 2.5s-.898 2.5-2 2.5Zm-10-10a1 1 0 0 0 1-1V5h11v6a1 1 0 0 0 1 1h6v2a1 1 0 0 0 2 0v-3a1 1 0 0 0-.293-.707l-7-7A1 1 0 0 0 19.5 3h-12a2 2 0 0 0-2 2v9a1 1 0 0 0 1 1Zm14-8.586L24.086 10H20.5V6.414Z" fill="currentColor"/></svg>