<svg viewBox="0 0 30.178 22" xmlns="http://www.w3.org/2000/svg"><path fill-rule="evenodd" clip-rule="evenodd" d="M10.973 22c6.06 0 10.972-4.925 10.972-11S17.033 0 10.973 0 0 4.925 0 11s4.913 11 10.973 11Zm0-3.438c4.166 0 7.543-3.385 7.543-7.562 0-4.177-3.377-7.563-7.543-7.563-4.167 0-7.544 3.386-7.544 7.563s3.377 7.563 7.544 7.563Z" fill="#101828"/><path d="M21.954 18.045a13.145 13.145 0 0 1-3.85 3.9c.363.037.73.055 1.102.055 6.06 0 10.972-4.925 10.972-11S25.266 0 19.206 0c-.372 0-.74.019-1.101.055a13.141 13.141 0 0 1 3.849 3.9A7.565 7.565 0 0 1 26.749 11a7.565 7.565 0 0 1-4.795 7.045Z" fill="#101828"/></svg>