<svg fill="none" xmlns="http://www.w3.org/2000/svg" viewBox="0 0 110 28"><g clip-path="url(#a)"><mask id="b" style="mask-type:luminance" maskUnits="userSpaceOnUse" x="0" y="0" width="110" height="28"><path d="M110 .5H0v27h110V.5Z" fill="#fff"/></mask><g mask="url(#b)" fill="#000"><path d="M45.522 4.461c-2.024 0-3.497.477-4.747 1.578l-2.21 1.907c-.183.147-.552.257-.809.036-.258-.22-.294-.513-.074-.807l1.178-1.76c.184-.258.038-.588-.294-.588H35.73a.58.58 0 0 0-.588.587v17.17c0 .33.258.587.588.587h2.945a.58.58 0 0 0 .589-.587V12.9c0-4.439 3.718-5.136 5.116-5.136 2.981 0 4.049 2.128 4.049 3.742v11.08c0 .329.258.586.589.586h2.944a.58.58 0 0 0 .59-.587V11.138c0-4.109-2.688-6.677-7.03-6.677ZM64.55 4.388c-5.705 0-9.349 3.485-9.349 8.217v2.605c0 4.99 3.644 8.402 9.349 8.402 5.042 0 8.576-2.605 8.944-6.127.037-.367-.22-.624-.589-.624h-2.87a.553.553 0 0 0-.553.404c-.368 1.174-2.098 2.935-4.932 2.935-2.834 0-5.484-2.055-5.448-4.99l.037-3.265C59.176 9.488 61.753 7.8 64.55 7.8c2.54 0 5.006 1.431 5.263 3.78a.537.537 0 0 1-.434.567l-8.253 1.597a.75.75 0 0 0-.589.733v.036c0 .33.331.624.81.624h11.852a.588.588 0 0 0 .589-.587v-2.311c0-4.365-3.792-7.85-9.239-7.85l.001-.001ZM85.087 4.388c-4.601 0-8.576 2.677-8.576 6.2 0 .293.258.513.589.513h2.981c.294 0 .515-.22.552-.514.295-1.614 2.246-2.788 4.344-2.788 2.502 0 4.196 1.542 4.196 4.183v3.192c0 3.265-2.43 4.916-5.448 4.916-2.356 0-3.718-.88-3.718-2.312 0-1.247.663-2.311 3.386-2.935l3.938-1.064c.405-.11.553-.44.479-.807-.037-.293-.368-.44-.663-.44h-4.085c-3.46 0-6.956 2.2-6.956 5.429v.513c0 3.302 3.128 5.026 6.698 5.026 2.282 0 4.233-.88 5.447-1.907l1.804-1.541c.295-.257.59-.257.846 0 .221.22.147.55-.037.807l-1.104 1.724c-.184.257-.037.587.294.587h2.65a.58.58 0 0 0 .59-.587V11.467c0-4.255-3.055-7.08-8.209-7.08h.002ZM109.194 4.828h-4.123c-1.435 0-2.834.88-3.828 1.725l-1.618 1.394c-.184.147-.516.257-.737.073-.258-.183-.368-.55-.147-.844l1.178-1.76c.184-.258.038-.588-.294-.588h-2.76a.58.58 0 0 0-.59.587v17.17c0 .33.258.587.59.587h3.018a.58.58 0 0 0 .588-.587V13.78c0-3.779 1.546-5.466 4.896-5.466h3.827a.58.58 0 0 0 .589-.587V5.415a.58.58 0 0 0-.589-.587ZM24.08.69c-.989 0-1.907.512-2.425 1.352l-5.583 8.26a.59.59 0 0 0 .165.822.595.595 0 0 0 .716-.045l5.495-4.75a.223.223 0 0 1 .372.168v14.874a.222.222 0 0 1-.394.142L5.816 1.694A2.854 2.854 0 0 0 3.644.69h-.58A2.84 2.84 0 0 0 .219 3.526v20.948a2.84 2.84 0 0 0 2.845 2.835c.989 0 1.907-.51 2.425-1.35l5.583-8.262a.59.59 0 0 0-.165-.82.595.595 0 0 0-.716.044l-5.495 4.75a.223.223 0 0 1-.37-.168V6.625a.222.222 0 0 1 .393-.141l16.608 19.821a2.854 2.854 0 0 0 2.171 1.005h.58a2.841 2.841 0 0 0 2.848-2.834V3.526A2.84 2.84 0 0 0 24.08.69Z"/></g></g><defs><clipPath id="a"><path fill="#fff" d="M0 0h110v28H0z"/></clipPath></defs></svg>