<svg fill="none" xmlns="http://www.w3.org/2000/svg" viewBox="0 0 30 30"><path d="m24.128 2.256-6.082 9.028a.646.646 0 0 0 .96.847l5.988-5.191a.242.242 0 0 1 .402.185v16.25a.24.24 0 0 1-.427.156L6.872 1.881A3.1 3.1 0 0 0 4.506.782h-.63c-.824 0-1.612.327-2.194.908a3.087 3.087 0 0 0-.904 2.19v22.887a3.105 3.105 0 0 0 2.082 2.93 3.091 3.091 0 0 0 2.683-.316c.395-.252.729-.59.975-.99l6.083-9.029a.647.647 0 0 0-.96-.849l-5.988 5.191a.242.242 0 0 1-.364-.049.245.245 0 0 1-.038-.134V7.267a.243.243 0 0 1 .16-.23.24.24 0 0 1 .266.074L23.77 28.768a3.1 3.1 0 0 0 2.366 1.099h.63a3.1 3.1 0 0 0 1.72-.522c.51-.34.91-.825 1.149-1.392.155-.376.235-.779.235-1.186V3.88A3.105 3.105 0 0 0 27.786.95a3.091 3.091 0 0 0-2.683.316 3.122 3.122 0 0 0-.975.991Z" fill="currentColor"/></svg>