<svg fill="none" xmlns="http://www.w3.org/2000/svg" viewBox="0 0 136 136"><path d="M129.428 21.314a2.122 2.122 0 0 0-1.997-1.992c-26.695-1.594-48.046 6.428-57.12 21.404-6.184 10.21-5.934 22.27.659 34.111a35.77 35.77 0 0 0-8.846 18.28L49.645 80.639c4.585-8.5 4.68-17.175.223-24.538C43.27 45.204 27.811 39.382 8.5 40.513A2.125 2.125 0 0 0 6.513 42.5C5.382 61.8 11.204 77.26 22.1 83.858a22.217 22.217 0 0 0 11.624 3.283 27.248 27.248 0 0 0 12.915-3.506l14.986 15.002v16.113a2.126 2.126 0 0 0 4.25 0V99.083a31.646 31.646 0 0 1 8.123-21.25c6.104 3.38 12.256 5.08 18.19 5.08a30.28 30.28 0 0 0 15.836-4.469c14.971-9.079 22.977-30.43 21.404-57.13ZM24.299 80.219c-9.174-5.546-14.205-18.759-13.631-35.551 16.792-.574 30.005 4.457 35.55 13.631 3.443 5.69 3.502 12.416.245 19.173L31.248 62.247a2.125 2.125 0 0 0-3.001 3.001l15.23 15.231c-6.762 3.257-13.488 3.198-19.178-.26ZM105.82 74.8c-8.527 5.164-18.642 5.095-28.73-.133l30.663-30.669a2.125 2.125 0 0 0-3.001-3.007l-30.67 30.67c-5.227-10.095-5.312-20.188-.132-28.73 8.027-13.282 27.136-20.47 51.335-19.466 1.009 24.199-6.205 43.308-19.465 51.335Z" fill="currentColor"/></svg>