<svg fill="none" xmlns="http://www.w3.org/2000/svg" viewBox="0 0 33 32"><path d="M27.5 5h-22a2 2 0 0 0-2 2v20a1 1 0 0 0 1.447.894L8.5 26.118l3.553 1.776a.999.999 0 0 0 .894 0l3.553-1.776 3.552 1.776a.999.999 0 0 0 .896 0l3.552-1.776 3.552 1.776A1 1 0 0 0 29.5 27V7a2 2 0 0 0-2-2Zm0 20.383-2.552-1.278a1 1 0 0 0-.896 0L20.5 25.882l-3.552-1.777a1 1 0 0 0-.896 0L12.5 25.882l-3.553-1.777a1 1 0 0 0-.894 0L5.5 25.382V7h22v18.383ZM17.5 14a1 1 0 0 1 1-1h6a1 1 0 0 1 0 2h-6a1 1 0 0 1-1-1Zm0 4a1 1 0 0 1 1-1h6a1 1 0 0 1 0 2h-6a1 1 0 0 1-1-1Zm-9 3h6a1 1 0 0 0 1-1v-8a1 1 0 0 0-1-1h-6a1 1 0 0 0-1 1v8a1 1 0 0 0 1 1Zm1-8h4v6h-4v-6Z" fill="currentColor"/></svg>