<svg version="1.1" id="transak_symbol" xmlns="http://www.w3.org/2000/svg" xmlns:xlink="http://www.w3.org/1999/xlink" x="0" y="0" viewBox="0 0 64 64" style="enable-background:new 0 0 64 64" xml:space="preserve"><style>.st0{clip-path:url(#SVGID_00000101812203663220536460000016002016787146522276_)}.st1{fill:url(#SVGID_00000135654205200416047740000000918654374279461525_)}</style><defs><path id="SVGID_1_" d="M0 0h64v64H0z"/></defs><clipPath id="SVGID_00000141455462883667420760000004809771273345649024_"><use xlink:href="#SVGID_1_" style="overflow:visible"/></clipPath><g style="clip-path:url(#SVGID_00000141455462883667420760000004809771273345649024_)"><linearGradient id="SVGID_00000112597383097920615070000008876140591591939752_" gradientUnits="userSpaceOnUse" x1="4.311" y1="50.38" x2="59.689" y2="18.407" gradientTransform="matrix(1 0 0 -1 0 66.394)"><stop offset=".13" style="stop-color:#348bed"/><stop offset=".31" style="stop-color:#2b80e8"/><stop offset=".64" style="stop-color:#1461db"/><stop offset=".72" style="stop-color:#0e57d7"/></linearGradient><path style="fill:url(#SVGID_00000112597383097920615070000008876140591591939752_)" d="M32 64c17.7 0 32-14.3 32-32S49.7 0 32 0 0 14.3 0 32s14.3 32 32 32z"/><path d="m52.2 30-9-9-.2-.2-.1-.1h-.1c-.5-.3-1.1-.5-1.7-.4-.6.1-1.2.4-1.5.9l-14 14V22.8c0-.6-.3-1.3-.7-1.7-.5-.5-1.1-.7-1.7-.7-.6 0-1.3.3-1.7.7-.5.5-.7 1.1-.7 1.7v12.5l-5.1-5.1c-.5-.4-1.1-.7-1.7-.7-.6 0-1.3.3-1.7.7-.5.5-.7 1.1-.7 1.7 0 .6.2 1.3.7 1.7l9.4 9.4.2.2c.1.1.1.1.2.1.3.2.7.4 1.1.4H23.8c.1 0 .1 0 .2-.1.1 0 .1 0 .2-.1.1 0 .2-.1.3-.2h.1c.1-.1.2-.1.3-.2.1 0 .1-.1.2-.1l14.2-14.2v12.5c0 .7.3 1.3.7 1.8.5.5 1.1.7 1.8.7s1.3-.3 1.8-.7c.5-.5.7-1.1.7-1.8V28.7l4.8 4.8c.2.2.5.4.8.6.3.1.6.2 1 .2.3 0 .7-.1 1-.2.3-.1.6-.3.8-.5s.4-.5.5-.8c.1-.3.2-.6.2-1 0-.3-.1-.7-.2-1-.6-.3-.8-.5-1-.8z" style="fill:#fff"/></g></svg>