<svg fill="none" xmlns="http://www.w3.org/2000/svg" viewBox="0 0 32 33"><path d="M30.6 19.3a1 1 0 0 1-1.4-.2 6.45 6.45 0 0 0-5.2-2.6 1 1 0 0 1 0-2 3 3 0 1 0-2.905-3.75 1 1 0 1 1-1.938-.5 5 5 0 1 1 8.218 4.939 8.492 8.492 0 0 1 3.429 2.71A1 1 0 0 1 30.6 19.3ZM23.865 27a.998.998 0 0 1-.343 1.402A1 1 0 0 1 22.134 28a7.125 7.125 0 0 0-12.27 0 1 1 0 1 1-1.73-1 9.008 9.008 0 0 1 4.217-3.74 6 6 0 1 1 7.296 0A9.007 9.007 0 0 1 23.864 27ZM16 22.5a4 4 0 1 0 0-8 4 4 0 0 0 0 8Zm-7-7a1 1 0 0 0-1-1 3 3 0 1 1 2.905-3.75 1 1 0 0 0 1.938-.5 5 5 0 1 0-8.218 4.939 8.492 8.492 0 0 0-3.425 2.71A1 1 0 1 0 2.8 19.1 6.45 6.45 0 0 1 8 16.5a1 1 0 0 0 1-1Z" fill="currentColor"/></svg>