<?xml version="1.0" standalone="no"?>
<!DOCTYPE svg PUBLIC "-//W3C//DTD SVG 20010904//EN"
 "http://www.w3.org/TR/2001/REC-SVG-20010904/DTD/svg10.dtd">
<svg version="1.0" xmlns="http://www.w3.org/2000/svg"
 width="1000.000000pt" height="1000.000000pt" viewBox="0 0 1000.000000 1000.000000"
 preserveAspectRatio="xMidYMid meet">
<metadata>
Created by potrace 1.14, written by Peter Selinger 2001-2017
</metadata>
<g transform="translate(0.000000,1000.000000) scale(0.100000,-0.100000)"
fill="#000000" stroke="none">
<path d="M2745 7675 c-175 -38 -328 -160 -400 -317 -58 -127 -55 -2 -53 -2390
l3 -2193 23 -67 c79 -234 306 -397 553 -398 75 0 196 32 272 72 119 63 146
100 772 1023 534 788 589 874 590 910 0 23 -8 53 -18 69 -23 35 -80 59 -121
52 -22 -4 -194 -146 -605 -501 -374 -323 -581 -495 -595 -495 -12 0 -27 5 -34
12 -9 9 -12 364 -12 1535 l0 1523 24 16 c16 9 30 12 39 7 9 -4 783 -922 1722
-2040 1619 -1928 1710 -2035 1781 -2083 117 -78 185 -95 379 -95 143 0 168 3
234 24 149 49 276 160 342 297 63 130 59 -9 57 2396 l-3 2193 -23 67 c-31 91
-110 207 -180 263 -150 120 -329 161 -506 115 -171 -44 -267 -123 -416 -345
-52 -77 -317 -468 -589 -870 -448 -660 -495 -734 -496 -770 0 -23 8 -53 18
-69 23 -35 80 -59 121 -52 22 4 194 147 605 501 375 324 581 495 595 495 12 0
27 -5 34 -12 9 -9 12 -364 12 -1534 l0 -1523 -21 -15 c-12 -8 -29 -12 -39 -8
-9 4 -779 914 -1709 2022 -996 1186 -1715 2035 -1749 2063 -73 61 -158 103
-247 122 -86 18 -278 18 -360 0z"/>
</g>
</svg>
