<svg
  width="20"
  height="20"
  viewBox="0 0 20 20"
  fill="none"
  xmlns="http://www.w3.org/2000/svg"
>
  <path
    d="M9.99992 3.2927C10.6708 3.2927 11.2737 3.66539 11.5736 4.26523L16.5215 14.1609C16.7962 14.7102 16.7673 15.3499 16.4448 15.8726C16.1218 16.3952 15.5623 16.7071 14.9483 16.7071H5.05202C4.43797 16.7071 3.8785 16.3952 3.5555 15.8726C3.2325 15.3499 3.20366 14.7102 3.4783 14.1609L8.42619 4.26523C8.72612 3.66539 9.32908 3.2927 9.99992 3.2927ZM9.99992 2.08325C8.8752 2.08325 7.84764 2.71859 7.34451 3.7244L2.39661 13.6201C1.93652 14.5402 1.98577 15.6334 2.52661 16.5084C3.06745 17.3837 4.02314 17.9166 5.05202 17.9166H14.9478C15.9767 17.9166 16.9324 17.3837 17.4732 16.5084C18.0141 15.633 18.0633 14.5402 17.6032 13.6201L12.6553 3.7244C12.1526 2.71859 11.1246 2.08325 9.99992 2.08325Z"
    fill="currentColor"
    stroke="currentColor"
  />
</svg>
