<svg
  width="512"
  height="512"
  viewBox="0 0 512 512"
  fill="none"
  xmlns="http://www.w3.org/2000/svg"
>
  <rect width="512" height="512" rx="256" fill="black" />
  <path
    d="M140.666 237.121C150.201 334.737 171.135 382.612 286.381 358.156C340.894 346.757 386.91 333.493 444.532 343.027C444.532 343.027 468.369 348.623 452.202 348.208C430.852 347.794 366.389 378.052 316.229 407.69C194.972 479.606 89.8832 403.752 140.666 237.121Z"
    fill="url(#paint0_linear_416_54)"
  />
  <path
    d="M150.025 230.948C111.864 284.892 101.517 318.371 170.848 356.886C203.758 375.043 232.827 388.621 258.011 418.769C258.011 418.769 267.709 432.005 259.739 424.859C249.042 415.267 203.043 402.212 164.363 395.341C70.8632 378.289 50.6801 293.41 150.025 230.948Z"
    fill="url(#paint1_radial_416_54)"
  />
  <path
    d="M163.416 238.204C123.471 237.188 103 243.331 107.285 291.169C109.162 313.831 112.399 333.087 105.529 355.904C105.529 355.904 102.073 365.222 103.048 358.802C104.326 350.114 95.1714 322.599 85.7372 300.983C62.6094 248.166 98.4527 209.373 163.416 238.204Z"
    fill="url(#paint2_radial_416_54)"
  />
  <path
    d="M263.859 32.9792C261.372 47.9014 271.114 79.4038 284.794 108.005C285.209 108.834 296.402 45.6217 296.816 46.4507C306.766 66.5542 328.737 132.046 318.373 158.16C317.958 159.403 319.617 160.232 320.446 160.647C350.708 185.103 337.235 167.072 337.235 196.294C337.235 201.683 354.646 207.901 354.439 208.108C353.403 214.533 350.915 218.056 348.221 221.165C339.93 231.113 332.675 223.237 308.838 232.771C302.413 235.258 307.18 234.014 302.205 263.859C295.987 301.579 254.947 305.102 225.721 286.449C96.795 203.548 147.578 297.641 210.797 314.014C248.521 323.755 282.1 313.807 338.686 332.252C339.93 332.667 325.006 328.936 305.315 327.9C295.158 327.278 282.722 329.558 268.627 331.838C241.681 336.397 216.601 346.138 187.167 337.019C158.149 327.9 142.396 286.449 140.323 276.916C120.217 190.699 221.575 236.087 219.71 241.683C215.771 253.703 264.481 240.439 262.408 218.885C258.47 216.605 236.292 209.559 240.645 202.305C251.216 184.688 259.921 177.227 259.921 175.155C259.921 173.289 245.205 162.719 239.401 147.59C229.244 121.062 234.634 76.5023 263.859 32.9792Z"
    fill="url(#paint3_radial_416_54)"
  />
  <path
    fill-rule="evenodd"
    clip-rule="evenodd"
    d="M296.207 229.239C286.672 225.509 277.552 216.804 276.101 213.695C272.37 205.198 287.087 201.468 310.509 210.794C333.31 219.706 334.76 216.182 354.452 208.307C354.452 208.307 353.623 213.903 350.928 217.84C348.441 221.571 346.161 223.644 345.953 223.851C341.808 227.167 338.077 227.167 331.859 227.789C329.786 227.996 327.506 228.203 324.604 228.618C317.349 229.861 311.338 232.348 309.058 233.177C309.058 233.177 308.436 233.384 307.607 233.799C307.193 234.006 306.156 234.421 305.949 235.25C305.12 237.529 305.327 240.846 305.12 243.125C304.705 249.757 304.291 255.975 303.876 256.389C299.731 258.669 305.327 232.97 296.207 229.239Z"
    fill="#FF951C"
  />
  <path
    d="M146.381 244.271C140.645 222.862 134.314 212.818 109.42 222.406C97.6505 227.043 87.8398 231.51 74.6181 231.536C74.6181 231.536 69.1358 231.287 72.6991 230.649C77.5685 229.899 90.8048 220.925 100.929 212.484C125.418 192.142 151.687 205.262 146.381 244.271Z"
    fill="url(#paint4_linear_416_54)"
  />
  <defs>
    <linearGradient
      id="paint0_linear_416_54"
      x1="127.614"
      y1="335.945"
      x2="458.062"
      y2="335.945"
      gradientUnits="userSpaceOnUse"
    >
      <stop stop-color="#FF3F21" />
      <stop offset="1" stop-color="#FE8716" />
    </linearGradient>
    <radialGradient
      id="paint1_radial_416_54"
      cx="0"
      cy="0"
      r="1"
      gradientUnits="userSpaceOnUse"
      gradientTransform="translate(260.347 420.274) rotate(-139.258) scale(218.972 218.947)"
    >
      <stop stop-color="#FE8116" />
      <stop offset="1" stop-color="#FF4520" />
    </radialGradient>
    <radialGradient
      id="paint2_radial_416_54"
      cx="0"
      cy="0"
      r="1"
      gradientUnits="userSpaceOnUse"
      gradientTransform="translate(96.4312 329.157) rotate(-77.1138) scale(89.2828 89.2727)"
    >
      <stop offset="0.0298759" stop-color="#FE8516" />
      <stop offset="1" stop-color="#FF4520" />
    </radialGradient>
    <radialGradient
      id="paint3_radial_416_54"
      cx="0"
      cy="0"
      r="1"
      gradientUnits="userSpaceOnUse"
      gradientTransform="translate(246.076 187.073) scale(133.192 133.177)"
    >
      <stop stop-color="#FF8C16" />
      <stop offset="1" stop-color="#FF3F21" />
    </radialGradient>
    <linearGradient
      id="paint4_linear_416_54"
      x1="76.1059"
      y1="211.63"
      x2="149.881"
      y2="229.324"
      gradientUnits="userSpaceOnUse"
    >
      <stop stop-color="#F46F23" />
      <stop offset="0.515625" stop-color="#F95D21" />
      <stop offset="1" stop-color="#FF4520" />
    </linearGradient>
  </defs>
</svg>
